<?xml version="1.0" encoding="iso-8859-1"?>
<!-- Generator: Adobe Illustrator 19.0.0, SVG Export Plug-In . SVG Version: 6.00 Build 0)  -->
<svg version="1.1" id="Capa_1" xmlns="http://www.w3.org/2000/svg" xmlns:xlink="http://www.w3.org/1999/xlink" x="0px" y="0px"
	 viewBox="0 0 430.147 430.147" style="enable-background:new 0 0 430.147 430.147;" xml:space="preserve">
<g id="XMLID_894_">
	<path id="XMLID_895_" d="M65,125.978c-35.896,0-65,29.103-65,65c0,32.496,23.851,59.422,55,64.232v132.768h90v-132h30.418
		l119.729,83.81V42.168l-119.729,83.81H65z M265.147,99.788v182.381l-70-49v-84.381L265.147,99.788z M85,357.978v-102h30v102H85z
		 M65,225.978c-19.299,0-35-15.701-35-35s15.701-35,35-35h100.146v70H65z"/>
	<path id="XMLID_900_" d="M325.147,85.978v30c41.355,0,75,33.644,75,75s-33.645,75-75,75v30c57.897,0,105-47.103,105-105
		S383.044,85.978,325.147,85.978z"/>
	<path id="XMLID_901_" d="M370.147,190.978c0-24.813-20.187-45-45-45v30c8.271,0,15,6.729,15,15c0,8.272-6.729,15-15,15v30
		C349.96,235.978,370.147,215.792,370.147,190.978z"/>
</g>
<g>
</g>
<g>
</g>
<g>
</g>
<g>
</g>
<g>
</g>
<g>
</g>
<g>
</g>
<g>
</g>
<g>
</g>
<g>
</g>
<g>
</g>
<g>
</g>
<g>
</g>
<g>
</g>
<g>
</g>
</svg>
