<?xml version="1.0" encoding="iso-8859-1"?>
<!-- Generator: Adobe Illustrator 22.1.0, SVG Export Plug-In . SVG Version: 6.00 Build 0)  -->
<svg xmlns="http://www.w3.org/2000/svg" xmlns:xlink="http://www.w3.org/1999/xlink" version="1.1" id="Layer_3" x="0px" y="0px" viewBox="0 0 64 64" style="enable-background:new 0 0 64 64;" xml:space="preserve" width="512" height="512">
<g>
	<g>
		<rect x="46" y="2" style="fill:#7D4B35;" width="16" height="55"/>
	</g>
	<g>
		<rect x="46" y="2" style="fill:#A76447;" width="13" height="55"/>
	</g>
	<g>
		<rect x="50" y="6" style="fill:#E8B67C;" width="4" height="4"/>
	</g>
	<g>
		<rect x="54" y="6" style="fill:#AE895D;" width="4" height="4"/>
	</g>
	<g>
		<rect x="58" y="6" style="fill:#E8B67C;" width="4" height="4"/>
	</g>
	<g>
		<rect x="54" y="20" style="fill:#E8B67C;" width="4" height="4"/>
	</g>
	<g>
		<rect x="50" y="20" style="fill:#AE895D;" width="4" height="4"/>
	</g>
	<g>
		<rect x="46" y="20" style="fill:#E8B67C;" width="4" height="4"/>
	</g>
	<g>
		<polygon style="fill:#3F4244;" points="18,43 18,18 22,14 28,14 32,10 46,10 46,43   "/>
	</g>
	<g>
		<polygon style="fill:#5F6366;" points="32,10 28,14 25,14 22,14 18,18 18,43 43,43 43,10   "/>
	</g>
	<g>
		<polygon style="fill:#E8B67C;" points="62,57 62,62 2,62 2,28 8,28 8,32 14,32 14,28 20,28 20,32 26,32 26,28 32,28 32,32 36,36     36,40 39,40 42,43 48,43 48,47 53,52 53,57   "/>
	</g>
	<g>
		<path d="M62,63H2c-0.553,0-1-0.447-1-1V28c0-0.553,0.447-1,1-1h6c0.553,0,1,0.447,1,1v3h4v-3c0-0.553,0.447-1,1-1h6    c0.553,0,1,0.447,1,1v3h4v-3c0-0.553,0.447-1,1-1h6c0.553,0,1,0.447,1,1v3.586l3.707,3.707C36.895,35.48,37,35.734,37,36v3h2    c0.266,0,0.52,0.105,0.707,0.293L42.414,42H48c0.553,0,1,0.447,1,1v3.586l4.707,4.707C53.895,51.48,54,51.734,54,52v4h8    c0.553,0,1,0.447,1,1v5C63,62.553,62.553,63,62,63z M3,61h58v-3h-8c-0.553,0-1-0.447-1-1v-4.586l-4.707-4.707    C47.105,47.52,47,47.266,47,47v-3h-5c-0.266,0-0.52-0.105-0.707-0.293L38.586,41H36c-0.553,0-1-0.447-1-1v-3.586l-3.707-3.707    C31.105,32.52,31,32.266,31,32v-3h-4v3c0,0.553-0.447,1-1,1h-6c-0.553,0-1-0.447-1-1v-3h-4v3c0,0.553-0.447,1-1,1H8    c-0.553,0-1-0.447-1-1v-3H3V61z"/>
	</g>
	<g>
		<path d="M20,44h-5c-0.266,0-0.52-0.105-0.707-0.293L9.586,39H2v-2h8c0.266,0,0.52,0.105,0.707,0.293L15.414,42H20V44z"/>
	</g>
	<g>
		<path d="M12,54h-2v-5.586l-3.707-3.707C6.105,44.52,6,44.266,6,44v-6h2v5.586l3.707,3.707C11.895,47.48,12,47.734,12,48V54z"/>
	</g>
	<g>
		<path d="M21.707,62.707l-1.414-1.414l8-8C28.48,53.105,28.734,53,29,53h9v2h-8.586L21.707,62.707z"/>
	</g>
	<g>
		<path d="M31.707,54.707l-1.414-1.414l4-4C34.48,49.105,34.734,49,35,49h3.586l1.707-1.707l1.414,1.414l-2,2    C39.52,50.895,39.266,51,39,51h-3.586L31.707,54.707z"/>
	</g>
	<g>
		<path d="M38.293,62.707L34.586,59H25v-2h10c0.266,0,0.52,0.105,0.707,0.293l4,4L38.293,62.707z"/>
	</g>
	<g>
		<path d="M63,57h-2V3H47v40h-2V2c0-0.553,0.447-1,1-1h16c0.553,0,1,0.447,1,1V57z"/>
	</g>
	<g>
		<path d="M19,28h-2V18c0-0.266,0.105-0.52,0.293-0.707l4-4C21.48,13.105,21.734,13,22,13h5.586l3.707-3.707    C31.48,9.105,31.734,9,32,9h14v2H32.414l-3.707,3.707C28.52,14.895,28.266,15,28,15h-5.586L19,18.414V28z"/>
	</g>
	<g>
		<path d="M62,11H50c-0.553,0-1-0.447-1-1V6c0-0.553,0.447-1,1-1h12v2H51v2h11V11z"/>
	</g>
	<g>
		<rect x="53" y="6" width="2" height="4"/>
	</g>
	<g>
		<rect x="57" y="6" width="2" height="4"/>
	</g>
	<g>
		<path d="M58,25H46v-2h11v-2H46v-2h12c0.553,0,1,0.447,1,1v4C59,24.553,58.553,25,58,25z"/>
	</g>
	<g>
		<rect x="53" y="20" width="2" height="4"/>
	</g>
	<g>
		<rect x="49" y="20" width="2" height="4"/>
	</g>
	<g>
		<path d="M50.707,37.707l-1.414-1.414l2-2C51.48,34.105,51.734,34,52,34h3.586l5.707-5.707l1.414,1.414l-6,6    C56.52,35.895,56.266,36,56,36h-3.586L50.707,37.707z"/>
	</g>
	<g>
		<path d="M59,47h-2v-3.586l-2.707-2.707C54.105,40.52,54,40.266,54,40v-5h2v4.586l2.707,2.707C58.895,42.48,59,42.734,59,43V47z"/>
	</g>
	<g>
		<path d="M39,30h-2v-5.586l-3.707-3.707C33.105,20.52,33,20.266,33,20v-4c0-0.266,0.105-0.52,0.293-0.707l6-6l1.414,1.414    L35,16.414v3.172l3.707,3.707C38.895,23.48,39,23.734,39,24V30z"/>
	</g>
	<g>
		<path d="M22.707,24.707l-1.414-1.414l6-6C27.48,17.105,27.734,17,28,17h6v2h-5.586L22.707,24.707z"/>
	</g>
</g>
</svg>
