<svg id="Capa_1" enable-background="new 0 0 512 512" height="512" viewBox="0 0 512 512" width="512" xmlns="http://www.w3.org/2000/svg"><path d="m512 119.012v-119.012h-119.012l-136.988 150.592-136.988-150.592h-119.012v119.012l155.802 141.728-46.555 51.179v-40.234h-30v54.902l18.132 18.132-97.379 97.379 69.902 69.902 97.379-97.379 18.132 18.132h54.903v-30h-40.234l55.918-50.867 55.918 50.867h-40.234v30h54.903l18.132-18.132 97.379 97.379 69.902-69.902-97.379-97.379 18.132-18.132v-54.902h-30v40.234l-46.555-51.179zm-334.329 263.572-13.521-13.521 317.85-317.85v54.533zm228.583-352.584h54.533l-317.85 317.85-13.521-13.521zm-170.532 142.883-19.828 21.798-164.681-164.681h54.533zm-205.722-67.137v-54.533l165.684 165.684-19.695 21.651zm12.426 336.352 27.476-27.476 27.476 27.476-27.477 27.477zm76.166-21.213-27.476-27.476 27.476-27.477 27.476 27.477zm176.511-104.569 52.748 52.748-13.521 13.521-56.038-50.976zm146.995 153.258-27.477-27.477 27.476-27.476 27.476 27.476zm-21.213-76.166-27.476 27.476-27.476-27.476 27.476-27.477zm-38.301-59.078-13.521 13.521-51.744-51.744 16.687-15.179z"/></svg>